# xmcd CD database file
#
# Track frame offsets:
#	150
#	29737
#	43082
#	61560
#	82277
#	97697
#	113175
#	150488
#	169084
#	187836
#	209258
#	226643
#	246252
#	274977
#	293297
#	309129
#
# Disc length: 4354 seconds
#
# Revision: 3
# Processed by: cddbd v1.5.1PL0 Copyright (c) Steve Scherf et al.
# Submitted via: CDex 1.51
#
DISCID=c6110010
DTITLE=Salsa - Hot Latin Music - CD 1
DYEAR=2001
DGENRE=Salsa
TTITLE0=Laura Lopez - Bembelegua
TTITLE1=Raul Ramirez - Ran Kan Kan
TTITLE2=Victoria de Villa - Camino del Corazon
TTITLE3=Ricardo Vega - La Bomba
TTITLE4=Raul Ramirez - Visa Para un Sueno
TTITLE5=Grupo Martinez - The Rigga Ding Dong Song
TTITLE6=Los Gardenias - Alto Songo
TTITLE7=Raul Ramirez - Burbujas De Amor
TTITLE8=Conchita Moreno - Estoy Aqui
TTITLE9=Victoria De Villa - Oye
TTITLE10=Raul Ramirez - Kikiriki
TTITLE11=Lisa De Maya - Corazon Salvaje
TTITLE12=Laura Lopez - Tumboa Latino Antiyano
TTITLE13=Raul Ramirez - Reina Mia
TTITLE14=Conchita Moreno - La Belleza
TTITLE15=Compania Da Silva - Mas Que Nada 
EXTD=YEAR: 2001
EXTT0=
EXTT1=
EXTT2=
EXTT3=
EXTT4=
EXTT5=
EXTT6=
EXTT7=
EXTT8=
EXTT9=
EXTT10=
EXTT11=
EXTT12=
EXTT13=
EXTT14=
EXTT15=
PLAYORDER=
